<?xml version="1.0" standalone="no"?>
<!DOCTYPE svg PUBLIC "-//W3C//DTD SVG 20010904//EN"
 "http://www.w3.org/TR/2001/REC-SVG-20010904/DTD/svg10.dtd">
<svg version="1.0" xmlns="http://www.w3.org/2000/svg"
 width="120.000000pt" height="120.000000pt" viewBox="0 0 120.000000 120.000000"
 preserveAspectRatio="xMidYMid meet">
<metadata>
Created by potrace 1.11, written by Peter Selinger 2001-2013
</metadata>
<g transform="translate(0.000000,120.000000) scale(0.100000,-0.100000)"
fill="#000000" stroke="none">
<path d="M547 1176 c-20 -22 -65 -188 -67 -243 0 -13 -13 -29 -35 -43 -90 -56
-148 -161 -146 -267 1 -86 28 -148 92 -213 30 -31 50 -57 43 -57 -6 0 -50 -16
-97 -36 -47 -21 -90 -37 -95 -37 -6 0 -24 17 -40 37 l-30 38 -17 -40 c-28 -66
-77 -217 -72 -222 3 -2 42 21 88 53 l83 56 33 -36 c18 -20 36 -36 38 -36 3 0
28 45 55 100 27 55 52 99 56 98 4 -2 9 -16 11 -33 4 -33 49 -105 67 -105 18
-1 46 -27 50 -46 2 -11 7 -42 10 -69 13 -96 40 -100 52 -7 10 84 13 97 23 100
57 19 111 92 111 152 1 31 7 22 55 -77 31 -62 57 -113 59 -113 3 0 21 17 40
37 l35 37 43 -31 c80 -57 121 -83 125 -80 5 6 -43 155 -68 211 -21 49 -34 57
-44 27 -3 -10 -14 -26 -25 -36 -19 -18 -23 -17 -120 25 l-101 42 40 34 c73 63
109 147 105 246 -4 100 -47 169 -161 259 -15 12 -26 46 -43 135 -18 90 -29
124 -46 141 -31 31 -79 30 -107 -1z"/>
</g>
</svg>
